<mxfile host="app.diagrams.net" modified="2024-03-01T15:14:33.415Z" agent="Mozilla/5.0 (Windows NT 10.0; Win64; x64) AppleWebKit/537.36 (KHTML, like Gecko) Chrome/121.0.0.0 Safari/537.36 Edg/121.0.0.0" etag="-h_SGwDUrnrh4HooQ_EK" version="24.0.0" type="device">
  <diagram name="Страница — 1" id="t2iSeuDeXfLZz8AlIME1">
    <mxGraphModel dx="1782" dy="1020" grid="1" gridSize="10" guides="1" tooltips="1" connect="1" arrows="1" fold="1" page="1" pageScale="1" pageWidth="827" pageHeight="1169" math="0" shadow="0">
      <root>
        <mxCell id="0" />
        <mxCell id="1" parent="0" />
        <mxCell id="o_ccyF2UDi4KbY_jadCn-4" value="Кладовщик" style="shape=umlActor;verticalLabelPosition=bottom;verticalAlign=top;html=1;outlineConnect=0;" vertex="1" parent="1">
          <mxGeometry x="998" y="1002" width="30" height="60" as="geometry" />
        </mxCell>
        <mxCell id="o_ccyF2UDi4KbY_jadCn-5" value="Авторизация" style="ellipse;whiteSpace=wrap;html=1;" vertex="1" parent="1">
          <mxGeometry x="863.5" y="820" width="116" height="50" as="geometry" />
        </mxCell>
        <mxCell id="o_ccyF2UDi4KbY_jadCn-6" value="Ввести количество поступившего товара" style="ellipse;whiteSpace=wrap;html=1;" vertex="1" parent="1">
          <mxGeometry x="1114.5" y="1176.5" width="140" height="66" as="geometry" />
        </mxCell>
        <mxCell id="o_ccyF2UDi4KbY_jadCn-7" value="Принять задание" style="ellipse;whiteSpace=wrap;html=1;" vertex="1" parent="1">
          <mxGeometry x="1097.5" y="952" width="116" height="50" as="geometry" />
        </mxCell>
        <mxCell id="o_ccyF2UDi4KbY_jadCn-8" value="" style="endArrow=classic;html=1;rounded=0;endFill=1;" edge="1" parent="1" source="o_ccyF2UDi4KbY_jadCn-4" target="o_ccyF2UDi4KbY_jadCn-7">
          <mxGeometry width="50" height="50" relative="1" as="geometry">
            <mxPoint x="1118" y="1057" as="sourcePoint" />
            <mxPoint x="1168" y="1007" as="targetPoint" />
          </mxGeometry>
        </mxCell>
        <mxCell id="o_ccyF2UDi4KbY_jadCn-9" value="Начальник склада" style="shape=umlActor;verticalLabelPosition=bottom;verticalAlign=top;html=1;outlineConnect=0;" vertex="1" parent="1">
          <mxGeometry x="998" y="1251.5" width="30" height="60" as="geometry" />
        </mxCell>
        <mxCell id="o_ccyF2UDi4KbY_jadCn-10" value="" style="endArrow=block;html=1;rounded=0;endFill=0;exitX=0.5;exitY=0;exitDx=0;exitDy=0;exitPerimeter=0;" edge="1" parent="1" source="o_ccyF2UDi4KbY_jadCn-9">
          <mxGeometry width="50" height="50" relative="1" as="geometry">
            <mxPoint x="1013" y="1302" as="sourcePoint" />
            <mxPoint x="1013" y="1082" as="targetPoint" />
          </mxGeometry>
        </mxCell>
        <mxCell id="o_ccyF2UDi4KbY_jadCn-11" value="Принять заказ" style="ellipse;whiteSpace=wrap;html=1;" vertex="1" parent="1">
          <mxGeometry x="1118.5" y="1102.5" width="116" height="50" as="geometry" />
        </mxCell>
        <mxCell id="o_ccyF2UDi4KbY_jadCn-12" value="Составить отчет по выбранным категориям" style="ellipse;whiteSpace=wrap;html=1;" vertex="1" parent="1">
          <mxGeometry x="1114.5" y="1261.5" width="126" height="70" as="geometry" />
        </mxCell>
        <mxCell id="o_ccyF2UDi4KbY_jadCn-13" value="" style="endArrow=classic;html=1;rounded=0;entryX=0;entryY=0.5;entryDx=0;entryDy=0;endFill=1;" edge="1" parent="1" source="o_ccyF2UDi4KbY_jadCn-9" target="o_ccyF2UDi4KbY_jadCn-12">
          <mxGeometry width="50" height="50" relative="1" as="geometry">
            <mxPoint x="1208" y="1162" as="sourcePoint" />
            <mxPoint x="1258" y="1112" as="targetPoint" />
          </mxGeometry>
        </mxCell>
        <mxCell id="o_ccyF2UDi4KbY_jadCn-14" value="" style="endArrow=classic;html=1;rounded=0;entryX=0;entryY=0.5;entryDx=0;entryDy=0;endFill=1;" edge="1" parent="1" source="o_ccyF2UDi4KbY_jadCn-9" target="o_ccyF2UDi4KbY_jadCn-11">
          <mxGeometry width="50" height="50" relative="1" as="geometry">
            <mxPoint x="1208" y="1322" as="sourcePoint" />
            <mxPoint x="1258" y="1272" as="targetPoint" />
          </mxGeometry>
        </mxCell>
        <mxCell id="o_ccyF2UDi4KbY_jadCn-15" value="Назначить задачу кладовщику" style="ellipse;whiteSpace=wrap;html=1;" vertex="1" parent="1">
          <mxGeometry x="1302" y="1100" width="116" height="50" as="geometry" />
        </mxCell>
        <mxCell id="o_ccyF2UDi4KbY_jadCn-16" style="edgeStyle=orthogonalEdgeStyle;rounded=0;orthogonalLoop=1;jettySize=auto;html=1;endArrow=block;endFill=0;" edge="1" parent="1">
          <mxGeometry relative="1" as="geometry">
            <mxPoint x="834" y="1282" as="sourcePoint" />
            <mxPoint x="994" y="1282" as="targetPoint" />
          </mxGeometry>
        </mxCell>
        <mxCell id="o_ccyF2UDi4KbY_jadCn-17" value="Админ" style="shape=umlActor;verticalLabelPosition=bottom;verticalAlign=top;html=1;outlineConnect=0;" vertex="1" parent="1">
          <mxGeometry x="807" y="1246" width="30" height="60" as="geometry" />
        </mxCell>
        <mxCell id="o_ccyF2UDi4KbY_jadCn-18" value="Выбрать данные по сотрудникам" style="ellipse;whiteSpace=wrap;html=1;" vertex="1" parent="1">
          <mxGeometry x="1326.5" y="1220.5" width="124" height="61.5" as="geometry" />
        </mxCell>
        <mxCell id="o_ccyF2UDi4KbY_jadCn-19" value="" style="endArrow=none;html=1;strokeWidth=1;rounded=0;entryX=0;entryY=0.5;entryDx=0;entryDy=0;exitX=1;exitY=0;exitDx=0;exitDy=0;startArrow=block;startFill=0;endFill=0;" edge="1" parent="1" source="o_ccyF2UDi4KbY_jadCn-12" target="o_ccyF2UDi4KbY_jadCn-18">
          <mxGeometry width="50" height="50" relative="1" as="geometry">
            <mxPoint x="1264.5" y="1142.5" as="sourcePoint" />
            <mxPoint x="1314.5" y="1092.5" as="targetPoint" />
          </mxGeometry>
        </mxCell>
        <mxCell id="o_ccyF2UDi4KbY_jadCn-20" value="Добавление новых позиций товаров" style="ellipse;whiteSpace=wrap;html=1;" vertex="1" parent="1">
          <mxGeometry x="614" y="1296.5" width="130" height="65.5" as="geometry" />
        </mxCell>
        <mxCell id="o_ccyF2UDi4KbY_jadCn-21" value="" style="endArrow=classic;html=1;rounded=0;entryX=1;entryY=0.5;entryDx=0;entryDy=0;startArrow=none;startFill=0;endFill=1;" edge="1" parent="1" source="o_ccyF2UDi4KbY_jadCn-17" target="o_ccyF2UDi4KbY_jadCn-20">
          <mxGeometry width="50" height="50" relative="1" as="geometry">
            <mxPoint x="779" y="816" as="sourcePoint" />
            <mxPoint x="829" y="766" as="targetPoint" />
          </mxGeometry>
        </mxCell>
        <mxCell id="o_ccyF2UDi4KbY_jadCn-22" value="Редактирование учетных записей&amp;nbsp;" style="ellipse;whiteSpace=wrap;html=1;" vertex="1" parent="1">
          <mxGeometry x="614" y="1206.5" width="115" height="65.5" as="geometry" />
        </mxCell>
        <mxCell id="o_ccyF2UDi4KbY_jadCn-23" value="" style="endArrow=none;html=1;rounded=0;exitX=1;exitY=0.5;exitDx=0;exitDy=0;endFill=0;startArrow=classic;startFill=1;" edge="1" parent="1" source="o_ccyF2UDi4KbY_jadCn-22" target="o_ccyF2UDi4KbY_jadCn-17">
          <mxGeometry width="50" height="50" relative="1" as="geometry">
            <mxPoint x="779" y="816" as="sourcePoint" />
            <mxPoint x="829" y="766" as="targetPoint" />
          </mxGeometry>
        </mxCell>
        <mxCell id="o_ccyF2UDi4KbY_jadCn-24" value="Сотрудник магазина" style="shape=umlActor;verticalLabelPosition=bottom;verticalAlign=top;html=1;outlineConnect=0;" vertex="1" parent="1">
          <mxGeometry x="807" y="992.5" width="30" height="57.5" as="geometry" />
        </mxCell>
        <mxCell id="o_ccyF2UDi4KbY_jadCn-25" value="Посмотреть остатки товара на складе" style="ellipse;whiteSpace=wrap;html=1;" vertex="1" parent="1">
          <mxGeometry x="641" y="860" width="140" height="55" as="geometry" />
        </mxCell>
        <mxCell id="o_ccyF2UDi4KbY_jadCn-26" value="" style="endArrow=none;html=1;rounded=0;exitX=1;exitY=1;exitDx=0;exitDy=0;endFill=0;startArrow=classic;startFill=1;" edge="1" parent="1" source="o_ccyF2UDi4KbY_jadCn-25" target="o_ccyF2UDi4KbY_jadCn-24">
          <mxGeometry width="50" height="50" relative="1" as="geometry">
            <mxPoint x="984" y="932.5" as="sourcePoint" />
            <mxPoint x="1034" y="882.5" as="targetPoint" />
          </mxGeometry>
        </mxCell>
        <mxCell id="o_ccyF2UDi4KbY_jadCn-27" value="Сделать заказ" style="ellipse;whiteSpace=wrap;html=1;" vertex="1" parent="1">
          <mxGeometry x="641" y="997.5" width="116" height="50" as="geometry" />
        </mxCell>
        <mxCell id="o_ccyF2UDi4KbY_jadCn-28" value="" style="endArrow=classic;html=1;rounded=0;entryX=1;entryY=0.5;entryDx=0;entryDy=0;endFill=1;" edge="1" parent="1" source="o_ccyF2UDi4KbY_jadCn-24" target="o_ccyF2UDi4KbY_jadCn-27">
          <mxGeometry width="50" height="50" relative="1" as="geometry">
            <mxPoint x="1061" y="1312.5" as="sourcePoint" />
            <mxPoint x="1111" y="1262.5" as="targetPoint" />
          </mxGeometry>
        </mxCell>
        <mxCell id="o_ccyF2UDi4KbY_jadCn-29" value="Сообщить о проблеме" style="ellipse;whiteSpace=wrap;html=1;" vertex="1" parent="1">
          <mxGeometry x="1102.5" y="1012" width="116" height="50" as="geometry" />
        </mxCell>
        <mxCell id="o_ccyF2UDi4KbY_jadCn-30" value="" style="endArrow=classic;html=1;rounded=0;entryX=0;entryY=0.5;entryDx=0;entryDy=0;endFill=1;" edge="1" parent="1" source="o_ccyF2UDi4KbY_jadCn-4" target="o_ccyF2UDi4KbY_jadCn-29">
          <mxGeometry width="50" height="50" relative="1" as="geometry">
            <mxPoint x="1148" y="1187" as="sourcePoint" />
            <mxPoint x="1198" y="1137" as="targetPoint" />
          </mxGeometry>
        </mxCell>
        <mxCell id="o_ccyF2UDi4KbY_jadCn-31" value="" style="endArrow=none;dashed=1;html=1;dashPattern=8 8;strokeWidth=1;rounded=0;entryX=1;entryY=0.5;entryDx=0;entryDy=0;exitX=0;exitY=0.5;exitDx=0;exitDy=0;endFill=0;startArrow=classic;startFill=1;" edge="1" parent="1" source="o_ccyF2UDi4KbY_jadCn-15" target="o_ccyF2UDi4KbY_jadCn-11">
          <mxGeometry width="50" height="50" relative="1" as="geometry">
            <mxPoint x="1248.5" y="1207.5" as="sourcePoint" />
            <mxPoint x="1308.5" y="1077.5" as="targetPoint" />
          </mxGeometry>
        </mxCell>
        <mxCell id="o_ccyF2UDi4KbY_jadCn-32" value="include" style="text;html=1;strokeColor=none;fillColor=none;align=center;verticalAlign=middle;whiteSpace=wrap;rounded=0;" vertex="1" parent="1">
          <mxGeometry x="1234.5" y="1134.25" width="60" height="30" as="geometry" />
        </mxCell>
        <mxCell id="o_ccyF2UDi4KbY_jadCn-33" value="Ввести товар" style="ellipse;whiteSpace=wrap;html=1;" vertex="1" parent="1">
          <mxGeometry x="501" y="1012.5" width="86" height="40" as="geometry" />
        </mxCell>
        <mxCell id="o_ccyF2UDi4KbY_jadCn-34" value="include" style="text;html=1;align=center;verticalAlign=middle;resizable=0;points=[];autosize=1;strokeColor=none;fillColor=none;" vertex="1" parent="1">
          <mxGeometry x="611" y="962.5" width="60" height="30" as="geometry" />
        </mxCell>
        <mxCell id="o_ccyF2UDi4KbY_jadCn-35" value="Ввести количество товара" style="ellipse;whiteSpace=wrap;html=1;" vertex="1" parent="1">
          <mxGeometry x="501" y="927.5" width="100" height="50" as="geometry" />
        </mxCell>
        <mxCell id="o_ccyF2UDi4KbY_jadCn-36" value="include" style="text;html=1;align=center;verticalAlign=middle;resizable=0;points=[];autosize=1;strokeColor=none;fillColor=none;" vertex="1" parent="1">
          <mxGeometry x="601" y="1037" width="60" height="30" as="geometry" />
        </mxCell>
        <mxCell id="o_ccyF2UDi4KbY_jadCn-37" value="" style="endArrow=classic;html=1;rounded=0;entryX=0;entryY=0.5;entryDx=0;entryDy=0;endFill=1;" edge="1" parent="1" source="o_ccyF2UDi4KbY_jadCn-9" target="o_ccyF2UDi4KbY_jadCn-6">
          <mxGeometry width="50" height="50" relative="1" as="geometry">
            <mxPoint x="1138" y="1282" as="sourcePoint" />
            <mxPoint x="1188" y="1232" as="targetPoint" />
          </mxGeometry>
        </mxCell>
        <mxCell id="o_ccyF2UDi4KbY_jadCn-38" value="&amp;nbsp;" style="text;html=1;align=center;verticalAlign=middle;resizable=0;points=[];autosize=1;strokeColor=none;fillColor=none;" vertex="1" parent="1">
          <mxGeometry x="1328" y="957" width="30" height="30" as="geometry" />
        </mxCell>
        <mxCell id="o_ccyF2UDi4KbY_jadCn-39" value="Изменения учетной записи сотрудника" style="ellipse;whiteSpace=wrap;html=1;" vertex="1" parent="1">
          <mxGeometry x="414" y="1116.5" width="125" height="65.5" as="geometry" />
        </mxCell>
        <mxCell id="o_ccyF2UDi4KbY_jadCn-40" value="Добавление новой учетной записи" style="ellipse;whiteSpace=wrap;html=1;" vertex="1" parent="1">
          <mxGeometry x="414" y="1195" width="120" height="55.5" as="geometry" />
        </mxCell>
        <mxCell id="o_ccyF2UDi4KbY_jadCn-41" value="Удаление учетной записи сотрудника" style="ellipse;whiteSpace=wrap;html=1;" vertex="1" parent="1">
          <mxGeometry x="414" y="1260" width="120" height="55.5" as="geometry" />
        </mxCell>
        <mxCell id="o_ccyF2UDi4KbY_jadCn-42" value="" style="endArrow=none;html=1;rounded=0;exitX=0;exitY=0;exitDx=0;exitDy=0;entryX=1;entryY=0.5;entryDx=0;entryDy=0;startArrow=block;startFill=0;" edge="1" parent="1" source="o_ccyF2UDi4KbY_jadCn-22" target="o_ccyF2UDi4KbY_jadCn-39">
          <mxGeometry width="50" height="50" relative="1" as="geometry">
            <mxPoint x="270.00000384158466" y="1300.6329707926145" as="sourcePoint" />
            <mxPoint x="366.77" y="1241" as="targetPoint" />
          </mxGeometry>
        </mxCell>
        <mxCell id="o_ccyF2UDi4KbY_jadCn-43" value="" style="endArrow=none;html=1;rounded=0;exitX=0;exitY=1;exitDx=0;exitDy=0;entryX=1;entryY=0.5;entryDx=0;entryDy=0;startArrow=block;startFill=0;" edge="1" parent="1" source="o_ccyF2UDi4KbY_jadCn-22" target="o_ccyF2UDi4KbY_jadCn-41">
          <mxGeometry width="50" height="50" relative="1" as="geometry">
            <mxPoint x="270.00000384158466" y="1346.8670292073855" as="sourcePoint" />
            <mxPoint x="416.77" y="1263" as="targetPoint" />
          </mxGeometry>
        </mxCell>
        <mxCell id="o_ccyF2UDi4KbY_jadCn-44" value="" style="edgeStyle=orthogonalEdgeStyle;rounded=0;orthogonalLoop=1;jettySize=auto;html=1;" edge="1" parent="1" source="o_ccyF2UDi4KbY_jadCn-45" target="o_ccyF2UDi4KbY_jadCn-5">
          <mxGeometry relative="1" as="geometry" />
        </mxCell>
        <mxCell id="o_ccyF2UDi4KbY_jadCn-45" value="Неавторизованный пользователь" style="shape=umlActor;verticalLabelPosition=bottom;verticalAlign=top;html=1;outlineConnect=0;" vertex="1" parent="1">
          <mxGeometry x="906.5" y="683" width="30" height="60" as="geometry" />
        </mxCell>
        <mxCell id="o_ccyF2UDi4KbY_jadCn-46" value="" style="endArrow=block;html=1;rounded=0;exitX=1;exitY=0.5;exitDx=0;exitDy=0;endFill=0;entryX=0;entryY=0.5;entryDx=0;entryDy=0;" edge="1" parent="1" source="o_ccyF2UDi4KbY_jadCn-40" target="o_ccyF2UDi4KbY_jadCn-22">
          <mxGeometry width="50" height="50" relative="1" as="geometry">
            <mxPoint x="544" y="1321.5" as="sourcePoint" />
            <mxPoint x="594" y="1271.5" as="targetPoint" />
          </mxGeometry>
        </mxCell>
        <mxCell id="o_ccyF2UDi4KbY_jadCn-47" value="" style="endArrow=classic;html=1;rounded=0;entryX=1;entryY=1;entryDx=0;entryDy=0;startArrow=none;startFill=0;endFill=1;dashed=1;dashPattern=8 8;" edge="1" parent="1" target="o_ccyF2UDi4KbY_jadCn-35">
          <mxGeometry width="50" height="50" relative="1" as="geometry">
            <mxPoint x="657" y="1005" as="sourcePoint" />
            <mxPoint x="551" y="742.5" as="targetPoint" />
          </mxGeometry>
        </mxCell>
        <mxCell id="o_ccyF2UDi4KbY_jadCn-48" value="" style="endArrow=none;html=1;rounded=0;exitX=1;exitY=0.5;exitDx=0;exitDy=0;entryX=0;entryY=0.5;entryDx=0;entryDy=0;endFill=0;startArrow=classic;startFill=1;dashed=1;dashPattern=8 8;" edge="1" parent="1" source="o_ccyF2UDi4KbY_jadCn-33" target="o_ccyF2UDi4KbY_jadCn-27">
          <mxGeometry width="50" height="50" relative="1" as="geometry">
            <mxPoint x="671" y="1152.5" as="sourcePoint" />
            <mxPoint x="721" y="1102.5" as="targetPoint" />
          </mxGeometry>
        </mxCell>
        <mxCell id="o_ccyF2UDi4KbY_jadCn-49" value="Отгрузить товар" style="ellipse;whiteSpace=wrap;html=1;" vertex="1" parent="1">
          <mxGeometry x="1310" y="917" width="124" height="40" as="geometry" />
        </mxCell>
        <mxCell id="o_ccyF2UDi4KbY_jadCn-50" value="" style="endArrow=classic;dashed=1;html=1;dashPattern=8 8;strokeWidth=1;rounded=0;entryX=0;entryY=0.5;entryDx=0;entryDy=0;exitX=1;exitY=0.5;exitDx=0;exitDy=0;startArrow=none;startFill=0;endFill=1;" edge="1" parent="1" source="o_ccyF2UDi4KbY_jadCn-7" target="o_ccyF2UDi4KbY_jadCn-49">
          <mxGeometry width="50" height="50" relative="1" as="geometry">
            <mxPoint x="1213.5" y="898" as="sourcePoint" />
            <mxPoint x="1317.5" y="871" as="targetPoint" />
          </mxGeometry>
        </mxCell>
        <mxCell id="o_ccyF2UDi4KbY_jadCn-51" value="include" style="text;html=1;align=center;verticalAlign=middle;resizable=0;points=[];autosize=1;strokeColor=none;fillColor=none;" vertex="1" parent="1">
          <mxGeometry x="1218.5" y="927" width="60" height="30" as="geometry" />
        </mxCell>
        <mxCell id="o_ccyF2UDi4KbY_jadCn-52" value="Выбрать данные по заказам" style="ellipse;whiteSpace=wrap;html=1;" vertex="1" parent="1">
          <mxGeometry x="1430.5" y="1290.5" width="126" height="57.75" as="geometry" />
        </mxCell>
        <mxCell id="o_ccyF2UDi4KbY_jadCn-53" value="" style="endArrow=none;html=1;strokeWidth=1;rounded=0;entryX=0;entryY=0.5;entryDx=0;entryDy=0;exitX=1;exitY=0.5;exitDx=0;exitDy=0;startArrow=block;startFill=0;endFill=0;" edge="1" parent="1" source="o_ccyF2UDi4KbY_jadCn-12" target="o_ccyF2UDi4KbY_jadCn-52">
          <mxGeometry width="50" height="50" relative="1" as="geometry">
            <mxPoint x="1250.5" y="1306.5" as="sourcePoint" />
            <mxPoint x="1324.5" y="1102.5" as="targetPoint" />
          </mxGeometry>
        </mxCell>
        <mxCell id="o_ccyF2UDi4KbY_jadCn-54" value="Выбрать данные по датам" style="ellipse;whiteSpace=wrap;html=1;" vertex="1" parent="1">
          <mxGeometry x="1310.5" y="1336" width="146" height="64.5" as="geometry" />
        </mxCell>
        <mxCell id="o_ccyF2UDi4KbY_jadCn-55" value="" style="endArrow=none;html=1;strokeWidth=1;rounded=0;entryX=0;entryY=0.5;entryDx=0;entryDy=0;exitX=1;exitY=1;exitDx=0;exitDy=0;startArrow=block;startFill=0;endFill=0;" edge="1" parent="1" source="o_ccyF2UDi4KbY_jadCn-12" target="o_ccyF2UDi4KbY_jadCn-54">
          <mxGeometry width="50" height="50" relative="1" as="geometry">
            <mxPoint x="1260.5" y="1316.5" as="sourcePoint" />
            <mxPoint x="1334.5" y="1112.5" as="targetPoint" />
          </mxGeometry>
        </mxCell>
        <mxCell id="o_ccyF2UDi4KbY_jadCn-56" value="Посмотреть остатки товаров на складе" style="ellipse;whiteSpace=wrap;html=1;" vertex="1" parent="1">
          <mxGeometry x="1097.5" y="1370.5" width="139" height="50" as="geometry" />
        </mxCell>
        <mxCell id="o_ccyF2UDi4KbY_jadCn-57" value="" style="endArrow=none;html=1;rounded=0;exitX=0;exitY=0.5;exitDx=0;exitDy=0;endFill=0;startArrow=classic;startFill=1;" edge="1" parent="1" source="o_ccyF2UDi4KbY_jadCn-56" target="o_ccyF2UDi4KbY_jadCn-9">
          <mxGeometry width="50" height="50" relative="1" as="geometry">
            <mxPoint x="780" y="1540" as="sourcePoint" />
            <mxPoint x="830" y="1490" as="targetPoint" />
          </mxGeometry>
        </mxCell>
      </root>
    </mxGraphModel>
  </diagram>
</mxfile>
